<svg width="1218" height="1214" viewBox="0 0 1218 1214" fill="none" xmlns="http://www.w3.org/2000/svg">
<mask id="path-1-outside-1_18_10" maskUnits="userSpaceOnUse" x="18.9957" y="18.8688" width="1179.15" height="1176.15" fill="black">
<rect fill="white" x="18.9957" y="18.8688" width="1179.15" height="1176.15"/>
<path fill-rule="evenodd" clip-rule="evenodd" d="M319.651 225.256C274.513 168.819 294.769 92.0003 302.445 62.8887C304.424 55.3863 305.566 51.0523 304.539 51.0522C296.472 51.051 226.07 184.491 243.105 241.995C243.592 243.638 241.998 245.229 240.384 244.653C181.9 223.791 134.453 194.489 107.783 178.018C93.2691 169.054 84.9087 163.891 84.2726 165.957C82.5077 171.69 146.173 250.937 188.503 290.321C189.942 291.66 188.809 294.167 186.848 294.03C132.182 290.2 49.5221 321.058 51.2822 329.424C51.9846 332.763 65.6664 332.128 84.2123 331.268C114 329.886 156.336 327.923 177.595 340.905C147.625 382.047 123.331 436.969 114.015 511.237C84.2504 515.812 95.234 562.519 117.211 582.212C128.696 644.666 159.356 680.599 196.848 694.676L196.802 1041.76C196.795 1096.99 241.56 1141.77 296.789 1141.78L519.085 1141.81C710.684 1196.49 979.251 1137.53 1043.95 1001.96C1074.13 938.718 1076.89 904.271 1079.35 873.666C1081.29 849.458 1083.04 827.653 1098.01 795.906C1169.9 643.433 1184.12 604.056 1143.85 428.674C1126.03 351.057 1094.73 318.139 1062.15 283.875L1062.15 283.874C1048.41 269.42 1034.44 254.727 1021.16 236.338C952.026 140.627 869.986 90.9254 749.641 81.0734L747.403 80.8901C653.482 73.199 595.457 68.4475 495.961 95.6929C428.477 114.172 362.702 160.24 319.651 225.256ZM918.484 838.896C919.009 832.97 918.992 827.231 918.487 821.688L918.484 838.896ZM527.94 424.731C516.372 424.041 505.048 424.121 495.145 424.285C495.141 424.432 495.138 424.579 495.134 424.726L527.94 424.731Z"/>
</mask>
<path fill-rule="evenodd" clip-rule="evenodd" d="M319.651 225.256C274.513 168.819 294.769 92.0003 302.445 62.8887C304.424 55.3863 305.566 51.0523 304.539 51.0522C296.472 51.051 226.07 184.491 243.105 241.995C243.592 243.638 241.998 245.229 240.384 244.653C181.9 223.791 134.453 194.489 107.783 178.018C93.2691 169.054 84.9087 163.891 84.2726 165.957C82.5077 171.69 146.173 250.937 188.503 290.321C189.942 291.66 188.809 294.167 186.848 294.03C132.182 290.2 49.5221 321.058 51.2822 329.424C51.9846 332.763 65.6664 332.128 84.2123 331.268C114 329.886 156.336 327.923 177.595 340.905C147.625 382.047 123.331 436.969 114.015 511.237C84.2504 515.812 95.234 562.519 117.211 582.212C128.696 644.666 159.356 680.599 196.848 694.676L196.802 1041.76C196.795 1096.99 241.56 1141.77 296.789 1141.78L519.085 1141.81C710.684 1196.49 979.251 1137.53 1043.95 1001.96C1074.13 938.718 1076.89 904.271 1079.35 873.666C1081.29 849.458 1083.04 827.653 1098.01 795.906C1169.9 643.433 1184.12 604.056 1143.85 428.674C1126.03 351.057 1094.73 318.139 1062.15 283.875L1062.15 283.874C1048.41 269.42 1034.44 254.727 1021.16 236.338C952.026 140.627 869.986 90.9254 749.641 81.0734L747.403 80.8901C653.482 73.199 595.457 68.4475 495.961 95.6929C428.477 114.172 362.702 160.24 319.651 225.256ZM918.484 838.896C919.009 832.97 918.992 827.231 918.487 821.688L918.484 838.896ZM527.94 424.731C516.372 424.041 505.048 424.121 495.145 424.285C495.141 424.432 495.138 424.579 495.134 424.726L527.94 424.731Z" fill="white"/>
<path d="M302.445 62.8886L333.388 71.0478L333.388 71.0478L302.445 62.8886ZM319.651 225.256L294.66 245.243L322.088 279.537L346.332 242.923L319.651 225.256ZM304.539 51.0521L304.535 83.0521L304.539 51.0521ZM243.105 241.995L212.423 251.084L212.423 251.084L243.105 241.995ZM240.384 244.653L229.632 274.793L229.632 274.793L240.384 244.653ZM107.783 178.018L124.598 150.791L124.598 150.791L107.783 178.018ZM84.2726 165.957L53.689 156.542L53.6889 156.542L84.2726 165.957ZM188.503 290.321L166.705 313.749L166.705 313.749L188.503 290.321ZM186.848 294.03L189.085 262.108L189.085 262.108L186.848 294.03ZM51.2822 329.424L82.5967 322.836L82.5967 322.836L51.2822 329.424ZM84.2123 331.268L82.7298 299.302L82.7298 299.302L84.2123 331.268ZM177.595 340.905L203.46 359.746L223.899 331.687L194.272 313.594L177.595 340.905ZM114.015 511.237L118.876 542.865L142.759 539.194L145.766 515.22L114.015 511.237ZM117.211 582.212L148.683 576.424L146.706 565.674L138.566 558.38L117.211 582.212ZM196.848 694.675L228.848 694.68L228.85 672.51L208.096 664.718L196.848 694.675ZM196.802 1041.76L164.802 1041.76L196.802 1041.76ZM519.085 1141.81L527.867 1111.03L523.564 1109.81L519.089 1109.81L519.085 1141.81ZM1043.95 1001.96L1072.83 1015.74L1072.83 1015.74L1043.95 1001.96ZM1079.35 873.666L1111.25 876.225L1111.25 876.225L1079.35 873.666ZM1098.01 795.906L1069.07 782.259L1069.07 782.259L1098.01 795.906ZM1143.85 428.674L1112.66 435.836L1112.66 435.836L1143.85 428.674ZM1062.15 283.874L1038.23 305.131L1038.59 305.534L1038.96 305.924L1062.15 283.874ZM1062.15 283.874L1086.07 262.618L1085.71 262.215L1085.34 261.825L1062.15 283.874ZM1021.16 236.338L995.216 255.075L995.216 255.075L1021.16 236.338ZM749.641 81.0733L747.029 112.967L747.03 112.967L749.641 81.0733ZM747.403 80.8901L744.791 112.783L744.792 112.783L747.403 80.8901ZM495.961 95.6928L487.509 64.8291L495.961 95.6928ZM918.484 838.896L886.484 838.891L950.36 841.717L918.484 838.896ZM918.487 821.688L950.355 818.783L886.487 821.684L918.487 821.688ZM527.94 424.731L527.935 456.731L529.845 392.787L527.94 424.731ZM495.145 424.285L494.613 392.29L463.847 392.801L463.153 423.563L495.145 424.285ZM495.134 424.726L463.144 423.912L462.31 456.722L495.13 456.726L495.134 424.726ZM271.503 54.7295C267.645 69.3596 259.682 99.2084 259.245 133.417C258.807 167.767 265.908 209.293 294.66 245.243L344.641 205.269C328.256 184.782 322.915 159.68 323.24 134.233C323.566 108.646 329.569 85.5294 333.388 71.0478L271.503 54.7295ZM304.535 83.0521C298.628 83.0513 292.1 81.3731 286.253 77.2458C280.709 73.3322 277.592 68.5051 275.916 64.9726C272.968 58.762 272.94 53.3449 272.926 52.2383C272.888 49.1263 273.408 47.0464 273.242 47.8765C273.075 48.7103 272.615 50.5118 271.503 54.7295L333.388 71.0478C334.254 67.7631 335.355 63.6464 335.997 60.4376C336.235 59.2464 336.972 55.614 336.921 51.455C336.901 49.8248 336.809 44.0104 333.735 37.5335C331.995 33.8679 328.8 28.9403 323.16 24.9595C317.218 20.765 310.579 19.053 304.544 19.0521L304.535 83.0521ZM273.787 232.905C271.828 226.292 271.689 213.552 275.698 194.485C279.508 176.367 286.251 156.206 294.054 137.008C301.824 117.889 310.29 100.593 317.097 88.3714C320.549 82.1747 323.265 77.8403 324.998 75.3935C325.945 74.0563 326.043 74.0761 325.383 74.7611C325.098 75.0571 323.846 76.3518 321.75 77.7948C320.568 78.6087 314.199 83.0535 304.535 83.0521L304.544 19.0521C294.375 19.0507 287.381 23.7561 285.46 25.0783C282.625 27.0298 280.522 29.0807 279.283 30.368C276.714 33.0357 274.488 35.9784 272.771 38.4021C269.177 43.4772 265.202 50.0169 261.186 57.2285C253.056 71.8239 243.473 91.4813 234.764 112.91C226.087 134.26 217.92 158.24 213.068 181.316C208.415 203.442 205.864 228.945 212.423 251.084L273.787 232.905ZM229.632 274.793C257.647 284.787 281.179 257.859 273.787 232.905L212.423 251.084C206.004 229.417 226.348 205.672 251.135 214.513L229.632 274.793ZM90.9688 205.244C117.733 221.773 167.681 252.694 229.632 274.793L251.135 214.514C196.12 194.889 151.173 167.204 124.598 150.791L90.9688 205.244ZM114.856 175.372C113.051 181.236 109.336 187.088 103.469 191.412C97.9776 195.46 92.4356 196.825 88.7741 197.275C82.3283 198.068 77.5575 196.535 76.8883 196.332C74.6544 195.655 73.7734 195.011 75.6096 196.003C78.572 197.604 83.318 200.519 90.9688 205.244L124.598 150.791C117.734 146.553 111.043 142.404 106.038 139.699C103.89 138.538 99.8926 136.43 95.4587 135.086C93.6894 134.549 88.0478 132.883 80.9662 133.753C76.987 134.242 71.186 135.7 65.4953 139.895C59.4291 144.366 55.5736 150.42 53.689 156.542L114.856 175.372ZM210.301 266.894C190.623 248.585 165.145 220.148 144.541 195.162C134.304 182.746 125.655 171.649 119.818 163.554C116.835 159.417 114.972 156.595 114.039 155.019C113.513 154.133 113.747 154.416 114.195 155.485C114.405 155.986 115.053 157.567 115.554 159.854C115.872 161.306 117.247 167.607 114.856 175.372L53.6889 156.542C51.1884 164.665 52.5803 171.468 53.0385 173.559C53.6799 176.485 54.5896 178.841 55.1792 180.246C56.3874 183.126 57.8488 185.737 58.9782 187.644C61.3537 191.653 64.506 196.27 67.9051 200.985C74.8315 210.591 84.4141 222.842 95.1634 235.878C116.534 261.794 144.053 292.673 166.705 313.749L210.301 266.894ZM184.612 325.951C201.12 327.108 213.24 316.77 218.149 305.823C223.096 294.791 222.744 278.472 210.301 266.894L166.705 313.749C155.7 303.51 155.502 289.113 159.752 279.635C163.964 270.242 174.537 261.089 189.085 262.108L184.612 325.951ZM82.5967 322.836C85.3726 336.03 78.7992 345.122 77.3598 347.01C76.212 348.515 75.1886 349.519 74.6316 350.033C74.0395 350.58 73.6145 350.904 73.4703 351.011C73.2564 351.17 74.4341 350.329 77.8782 348.676C84.3536 345.569 94.6123 341.595 107.202 337.773C132.972 329.95 162.96 324.435 184.612 325.951L189.085 262.108C156.07 259.795 117.396 267.794 88.6093 276.533C73.9202 280.993 60.4273 286.063 50.1907 290.975C45.2787 293.332 39.8603 296.244 35.2493 299.677C33.0724 301.298 29.58 304.121 26.4683 308.202C23.9847 311.459 16.9718 321.772 19.9677 336.012L82.5967 322.836ZM82.7298 299.302C72.9578 299.755 66.2774 300.045 61.8858 299.931C59.4596 299.868 59.8246 299.708 61.5035 300.106C62.2664 300.287 65.4314 301.054 69.1794 303.412C73.1536 305.913 80.3021 311.93 82.5967 322.836L19.9677 336.012C22.4379 347.753 30.1676 354.481 35.0969 357.582C39.8 360.541 44.294 361.8 46.7282 362.377C51.7494 363.569 56.8257 363.821 60.226 363.91C67.4874 364.098 76.9209 363.64 85.6948 363.234L82.7298 299.302ZM194.272 313.594C176.435 302.702 153.628 299.753 135.908 298.751C117.025 297.683 97.3467 298.624 82.7298 299.302L85.6948 363.234C100.866 362.53 117.249 361.798 132.296 362.649C148.506 363.566 157.496 366.126 160.917 368.215L194.272 313.594ZM145.766 515.22C154.437 446.092 176.811 396.329 203.46 359.746L151.729 322.063C118.438 367.765 92.2245 427.846 82.2636 507.254L145.766 515.22ZM138.566 558.38C136.571 556.593 134.024 553.387 131.804 549.003C129.598 544.646 128.362 540.396 127.98 537.227C127.55 533.656 128.446 534 127.168 536.422C126.398 537.882 125.048 539.613 123.054 541.009C121.082 542.39 119.425 542.781 118.876 542.865L109.153 479.608C92.0874 482.232 78.2889 491.917 70.5655 506.553C63.6624 519.635 63.0975 533.744 64.4397 544.883C67.0782 566.782 78.7027 590.673 95.8558 606.044L138.566 558.38ZM208.096 664.718C183.627 655.53 158.672 630.745 148.683 576.424L85.7385 587.999C98.7189 658.586 135.085 705.667 185.599 724.633L208.096 664.718ZM228.802 1041.77L228.848 694.68L164.848 694.671L164.802 1041.76L228.802 1041.77ZM296.793 1109.78C259.238 1109.77 228.797 1079.32 228.802 1041.77L164.802 1041.76C164.793 1114.66 223.883 1173.77 296.785 1173.78L296.793 1109.78ZM519.089 1109.81L296.793 1109.78L296.785 1173.78L519.08 1173.81L519.089 1109.81ZM1015.07 988.173C988.928 1042.96 917.335 1088.13 821.327 1112.19C726.916 1135.85 617.63 1136.65 527.867 1111.03L510.302 1172.58C612.138 1201.64 732.935 1200.32 836.883 1174.27C939.234 1148.62 1034.27 1096.53 1072.83 1015.74L1015.07 988.173ZM1047.45 871.106C1045.19 899.338 1043.02 929.616 1015.07 988.173L1072.83 1015.74C1105.24 947.82 1108.6 909.205 1111.25 876.225L1047.45 871.106ZM1069.07 782.259C1051.55 819.409 1049.47 845.967 1047.45 871.106L1111.25 876.225C1113.12 852.949 1114.53 835.897 1126.96 809.553L1069.07 782.259ZM1112.66 435.836C1132.64 522.835 1137.92 571.612 1131.34 616.205C1124.64 661.507 1105.44 705.114 1069.07 782.259L1126.96 809.553C1162.47 734.226 1186.33 681.908 1194.65 625.557C1203.08 568.498 1195.33 509.896 1175.04 421.512L1112.66 435.836ZM1038.96 305.924C1055.42 323.234 1069.3 337.95 1081.53 357.187C1093.53 376.058 1104.49 400.252 1112.66 435.836L1175.04 421.512C1165.39 379.479 1151.79 348.405 1135.54 322.848C1119.52 297.655 1101.46 278.779 1085.34 261.825L1038.96 305.924ZM1038.23 305.131L1038.23 305.131L1086.07 262.618L1086.07 262.618L1038.23 305.131ZM995.216 255.075C1009.93 275.449 1025.34 291.594 1038.96 305.923L1085.34 261.825C1071.48 247.247 1058.95 234.005 1047.1 217.601L995.216 255.075ZM747.03 112.967C857.499 122.01 931.233 166.491 995.216 255.075L1047.1 217.601C972.82 114.764 882.473 59.8406 752.252 49.18L747.03 112.967ZM744.792 112.783L747.029 112.967L752.252 49.1801L750.015 48.9968L744.792 112.783ZM504.412 126.557C598.221 100.869 651.541 105.147 744.791 112.783L750.015 48.9969C655.422 41.2508 592.693 36.0263 487.509 64.8291L504.412 126.557ZM346.332 242.923C385.131 184.329 444.448 142.977 504.412 126.557L487.509 64.8291C412.506 85.3672 340.273 136.151 292.97 207.589L346.332 242.923ZM950.36 841.717C951.05 833.915 951.036 826.26 950.355 818.783L886.619 824.593C886.948 828.202 886.967 832.025 886.609 836.075L950.36 841.717ZM886.487 821.684L886.484 838.891L950.484 838.9L950.487 821.692L886.487 821.684ZM529.845 392.787C517.001 392.021 504.668 392.122 494.613 392.29L495.677 456.281C505.428 456.119 515.743 456.06 526.034 456.674L529.845 392.787ZM463.153 423.563C463.15 423.679 463.147 423.796 463.144 423.912L527.124 425.54C527.128 425.362 527.132 425.185 527.136 425.007L463.153 423.563ZM495.13 456.726L527.935 456.731L527.944 392.731L495.138 392.726L495.13 456.726Z" fill="white" mask="url(#path-1-outside-1_18_10)"/>
<rect x="197.799" y="424.741" width="721.656" height="717.077" rx="100" fill="#F5F5F5"/>
<line x1="552.194" y1="424.787" x2="552.099" y2="1146.44" stroke="#9DA0A5" stroke-width="16"/>
<line x1="919.408" y1="782.838" x2="197.752" y2="782.744" stroke="#9DA0A5" stroke-width="16"/>
<path d="M313.218 779.781C313.198 929.525 491.782 1126.2 556.777 779.813C620.885 438.15 775.094 655.356 775.077 779.842" stroke="white" stroke-width="80" stroke-linecap="round"/>
<path d="M313.218 779.781C313.198 929.525 491.782 1126.2 556.777 779.813C620.885 438.15 775.094 655.356 775.077 779.842" stroke="#1F1300" stroke-width="40" stroke-linecap="round"/>
<rect x="209.798" y="436.742" width="697.656" height="693.077" rx="88" stroke="#1F1300" stroke-width="24"/>
<path d="M1021.07 867.84C910.005 1051.36 788.081 1119.56 599.312 1122.65C594.276 1122.77 576.875 1122.04 585.118 1121C690.368 1107.8 841.936 1077.99 904.768 892.551C908.043 882.884 910.995 872.817 913.597 862.331C890.841 907.825 874.081 923.182 847.064 928.718C766.945 945.135 712.438 941.522 672.136 990.512C594.284 1085.15 570.011 1093.07 462.858 1120.99C653.334 1208.01 973.416 1151.73 1044.87 1002.01C1098.92 888.755 1065.03 867.846 1098.93 795.959C1170.82 643.487 1185.04 604.11 1144.77 428.727C1119.43 318.369 1066.84 298.373 1022.07 236.392C952.942 140.681 870.902 90.9788 750.557 81.1268L748.319 80.9435C654.398 73.2524 596.373 68.5009 496.877 95.7463C429.393 114.225 363.618 160.293 320.567 225.31C366.517 167.162 459.45 131.023 522.058 120.476C918.611 53.6743 1205.66 463.535 1021.07 867.84Z" fill="#D7B4D0"/>
<path d="M619.488 132.674C618.787 132.085 617.722 132.191 617.062 132.825C554.818 192.546 502.38 223.405 438.68 242.984C464.316 278.829 486.925 333.655 493.438 380.837C607.196 362.977 631.438 393.66 639.222 393.661C646.887 393.662 639.465 336.396 512.481 329.808C510.565 329.709 509.803 327.219 511.402 326.158C588.48 275.028 645.055 299.54 690.163 257.116C691.54 255.821 690.368 253.606 688.493 253.849C600.375 265.276 591.065 255.337 512.377 273.211C509.989 273.754 508.909 271.115 511.004 269.847C558.51 241.093 641.896 151.512 619.488 132.674Z" fill="#D7B4D0"/>
<path d="M178.511 340.958C223.746 278.86 281.454 243.758 320.567 225.31C263.796 154.327 310.469 51.1063 305.455 51.1055C297.389 51.1044 226.986 184.544 244.021 242.048C244.508 243.691 242.914 245.283 241.3 244.707C150.988 212.491 86.9936 160.147 85.1887 166.01C83.4238 171.744 147.089 250.99 189.419 290.375C190.858 291.714 189.725 294.22 187.764 294.083C133.098 290.253 50.4381 321.111 52.1983 329.478C54.0287 338.178 144.017 319.894 178.511 340.958Z" fill="#D7B4D0"/>
<path d="M114.931 511.29C85.1665 515.865 96.1501 562.572 118.127 582.265C151.049 761.293 341.542 722.397 398.823 575.433L377.729 627.157C418.938 639.068 494.089 511.653 496.061 424.339C496.381 410.171 495.467 395.541 493.438 380.837C486.925 333.655 464.316 278.829 438.68 242.984C502.38 223.405 554.818 192.546 617.062 132.825C617.722 132.191 618.787 132.085 619.488 132.674C641.896 151.512 558.51 241.093 511.004 269.847C508.909 271.115 509.989 273.754 512.377 273.211C591.065 255.337 600.375 265.276 688.493 253.849C690.368 253.606 691.54 255.821 690.163 257.116C645.055 299.54 588.48 275.028 511.402 326.158C509.803 327.219 510.565 329.709 512.481 329.808C639.465 336.396 646.887 393.662 639.222 393.661C631.438 393.66 607.196 362.977 493.438 380.837C495.467 395.541 496.381 410.171 496.061 424.339C534.964 423.692 595.787 424.352 607.183 467.854C647.997 623.667 540.543 646.276 532.366 658.457C531.726 659.411 531.694 660.3 532.389 661.185C533.07 662.052 534.45 662.914 536.64 663.827C559.992 673.56 663.482 640.949 694.177 520.982C694.755 518.726 695.433 516.591 696.204 514.572C771.106 512.292 910.189 623.904 816.856 640.494C625.448 674.517 676.068 843.383 697.586 872.194C719.104 901.005 637.8 786.348 758.714 731.168C819.619 703.373 937.293 755.918 917.591 851.159C916.497 856.448 914.859 857.241 913.597 862.331C910.995 872.817 908.043 882.884 904.768 892.551C841.936 1077.99 690.368 1107.8 585.118 1121C576.875 1122.04 594.276 1122.77 599.312 1122.65C788.081 1119.56 910.005 1051.36 1021.07 867.84C1205.66 463.535 918.611 53.6743 522.058 120.476C459.45 131.023 366.517 167.162 320.567 225.31C281.454 243.758 223.746 278.86 178.511 340.958C148.541 382.1 124.247 437.023 114.931 511.29Z" fill="#E2D7E3"/>
<path d="M320.567 225.31L323.126 230.736L324.401 230.135L325.274 229.03L320.567 225.31ZM114.931 511.29L115.842 517.221L120.32 516.532L120.884 512.037L114.931 511.29ZM118.127 582.265L124.028 581.18L123.657 579.164L122.131 577.797L118.127 582.265ZM398.823 575.433L404.413 577.612L404.822 576.562L404.823 575.434L398.823 575.433ZM377.729 627.157L372.173 624.892L369.654 631.069L376.063 632.922L377.729 627.157ZM438.68 242.984L436.917 237.249L428.952 239.697L433.8 246.475L438.68 242.984ZM607.183 467.854L601.378 469.374L607.183 467.854ZM536.64 663.827L534.331 669.365L536.64 663.827ZM694.177 520.982L699.99 522.47L694.177 520.982ZM765.62 449.147C768.933 449.148 771.62 446.462 771.62 443.148C771.621 439.834 768.935 437.148 765.621 437.147L765.62 449.147ZM696.204 514.572L690.598 512.432L696.204 514.572ZM816.856 640.494L817.906 646.402L816.856 640.494ZM758.714 731.168L756.223 725.709L758.714 731.168ZM917.591 851.159L923.466 852.375L917.591 851.159ZM585.118 1121L585.864 1126.96L585.118 1121ZM1021.07 867.84L1026.21 870.947L1026.39 870.649L1026.53 870.332L1021.07 867.84ZM522.058 120.476L523.055 126.393L522.058 120.476ZM904.768 892.551L910.45 894.477L904.768 892.551ZM462.858 1120.99L461.345 1115.18L445.02 1119.43L460.364 1126.45L462.858 1120.99ZM672.136 990.512L676.77 994.324L676.77 994.324L672.136 990.512ZM847.064 928.718L845.859 922.84L845.859 922.84L847.064 928.718ZM913.597 862.331L919.42 863.776L913.597 862.331ZM1044.87 1002.01L1039.45 999.424L1044.87 1002.01ZM1098.93 795.959L1104.35 798.518L1098.93 795.959ZM1144.77 428.727L1138.92 430.07L1144.77 428.727ZM1022.07 236.392L1026.94 232.878L1026.94 232.878L1022.07 236.392ZM750.557 81.1268L750.067 87.1068L750.557 81.1268ZM496.877 95.7463L498.461 101.533L496.877 95.7463ZM85.1887 166.01L79.4543 164.245L85.1887 166.01ZM305.455 51.1055L305.454 57.1055L305.455 51.1055ZM599.312 1122.65L599.214 1116.65L599.195 1116.66L599.175 1116.66L599.312 1122.65ZM390.515 559.877C387.235 559.408 384.195 561.687 383.726 564.967C383.257 568.247 385.536 571.287 388.816 571.756L390.515 559.877ZM544.133 657.484C546.952 655.742 547.825 652.045 546.083 649.226C544.342 646.407 540.644 645.534 537.825 647.275L544.133 657.484ZM187.764 294.083L187.345 300.068L187.764 294.083ZM189.419 290.375L193.506 285.982L189.419 290.375ZM511.402 326.158L514.718 331.158L511.402 326.158ZM512.481 329.808L512.792 323.816L512.481 329.808ZM688.493 253.849L687.722 247.899L688.493 253.849ZM690.163 257.116L694.273 261.487L690.163 257.116ZM511.004 269.847L514.111 274.98L511.004 269.847ZM512.377 273.211L511.048 267.36L512.377 273.211ZM241.3 244.707L243.316 239.056L241.3 244.707ZM244.021 242.048L249.774 240.344L244.021 242.048ZM617.062 132.825L612.908 128.495L617.062 132.825ZM619.488 132.674L615.627 137.266L619.488 132.674ZM114.019 505.36C104.774 506.781 98.2097 511.666 94.4764 518.741C90.8969 525.524 90.1973 533.762 91.169 541.826C93.1039 557.884 101.979 575.852 114.123 586.734L122.131 577.797C112.298 568.986 104.693 553.753 103.083 540.391C102.282 533.745 103.044 528.218 105.089 524.341C106.981 520.756 110.206 518.087 115.842 517.221L114.019 505.36ZM112.226 583.35C120.648 629.151 139.285 661.691 164.008 682.026C188.759 702.383 219.076 710.061 249.92 707.068C311.391 701.102 375.075 652.884 404.413 577.612L393.232 573.254C365.289 644.946 305.086 689.658 248.761 695.124C220.706 697.847 193.647 690.866 171.631 672.758C149.587 654.627 132.067 624.894 124.028 581.18L112.226 583.35ZM393.267 573.168L372.173 624.892L383.284 629.423L404.378 577.699L393.267 573.168ZM376.063 632.922C389.621 636.84 404.261 629.052 417.349 617.222C430.834 605.033 444.514 586.936 456.786 565.991C481.289 524.169 501.043 469.482 502.059 424.474L490.062 424.203C489.107 466.51 470.3 519.187 446.432 559.925C434.519 580.258 421.561 597.239 409.303 608.319C396.648 619.758 386.441 623.43 379.395 621.393L376.063 632.922ZM496.16 430.338C515.669 430.013 539.836 430.057 560.444 435.352C581.023 440.639 596.487 450.701 601.378 469.374L612.987 466.334C606.483 441.505 585.838 429.486 563.43 423.729C541.051 417.98 515.356 418.017 495.961 418.339L496.16 430.338ZM534.331 669.365C538.382 671.053 543.535 671.61 549.082 671.4C554.734 671.185 561.257 670.155 568.325 668.284C582.467 664.542 599.161 657.342 616.002 646.022C649.751 623.336 684.248 583.995 699.99 522.47L688.364 519.495C673.411 577.936 640.815 614.884 609.308 636.062C593.52 646.674 578.044 653.3 565.255 656.684C558.858 658.376 553.224 659.234 548.627 659.408C543.924 659.587 540.735 659.034 538.948 658.289L534.331 669.365ZM699.99 522.47C700.513 520.426 701.123 518.51 701.809 516.712L690.598 512.432C689.743 514.673 688.996 517.026 688.364 519.495L699.99 522.47ZM701.809 516.712C707.41 502.042 717.815 484.815 729.947 471.335C736.001 464.608 742.344 458.973 748.564 455.057C754.823 451.118 760.59 449.147 765.62 449.147L765.621 437.147C757.545 437.146 749.55 440.257 742.171 444.902C734.754 449.571 727.583 456.023 721.028 463.307C707.941 477.848 696.744 496.335 690.598 512.432L701.809 516.712ZM696.386 520.569C713.767 520.04 735.511 526.167 757.226 536.382C778.84 546.549 799.817 560.479 815.569 574.885C823.444 582.086 829.895 589.3 834.465 596.105C839.079 602.976 841.511 609.038 841.934 614.007C842.33 618.676 840.997 622.538 837.454 625.834C833.659 629.364 826.906 632.614 815.806 634.587L817.906 646.402C830.139 644.227 839.457 640.36 845.627 634.62C852.051 628.645 854.578 621.083 853.891 612.991C853.228 605.2 849.631 597.164 844.427 589.415C839.18 581.601 832.026 573.673 823.667 566.029C806.953 550.743 784.948 536.161 762.334 525.523C739.822 514.934 716.091 507.964 696.021 508.575L696.386 520.569ZM815.806 634.587C767.065 643.25 733.157 660.608 710.278 682.681C687.379 704.774 675.93 731.204 671.46 757.285C667.002 783.297 669.47 809.001 674.386 829.989C679.263 850.815 686.711 867.66 692.779 875.784L702.393 868.604C697.703 862.323 690.754 847.255 686.069 827.253C681.423 807.412 679.165 783.371 683.288 759.312C687.399 735.322 697.839 711.356 718.61 691.317C739.4 671.259 770.943 654.749 817.906 646.402L815.806 634.587ZM692.779 875.784C694.094 877.545 695.151 878.941 695.906 879.836C696.189 880.17 696.81 880.905 697.575 881.479C697.805 881.652 698.206 881.932 698.744 882.183C699.221 882.405 700.279 882.831 701.68 882.755C703.366 882.664 704.995 881.868 706.107 880.467C707.033 879.299 707.283 878.11 707.366 877.553C707.527 876.469 707.359 875.568 707.315 875.328C707.244 874.936 707.149 874.578 707.074 874.315C706.921 873.781 706.716 873.18 706.513 872.605C706.146 871.568 705.462 869.73 704.86 868.05C702.22 860.677 698.057 847.904 696.858 832.706C695.661 817.533 697.433 800.156 706.462 783.377C715.462 766.652 731.967 749.969 761.205 736.626L756.223 725.709C725.004 739.956 706.33 758.298 695.894 777.691C685.488 797.029 683.57 816.862 684.895 833.65C686.218 850.411 690.789 864.349 693.563 872.096C694.315 874.196 694.777 875.413 695.2 876.608C695.391 877.149 695.492 877.458 695.537 877.616C695.56 877.698 695.538 877.632 695.509 877.475C695.508 877.47 695.353 876.748 695.497 875.786C695.571 875.289 695.803 874.147 696.705 873.01C697.791 871.641 699.387 870.862 701.031 870.773C702.391 870.699 703.398 871.113 703.816 871.308C704.295 871.531 704.628 871.769 704.781 871.884C705.239 872.227 705.408 872.488 705.074 872.093C704.597 871.528 703.768 870.444 702.393 868.604L692.779 875.784ZM761.205 736.626C789.327 723.792 831.818 729.286 865.204 750.115C898.26 770.739 920.924 805.427 911.715 849.944L923.466 852.375C933.96 801.65 907.638 762.445 871.556 739.934C835.805 717.629 789.006 710.748 756.223 725.709L761.205 736.626ZM1026.53 870.332C1119.66 666.344 1093.94 460.573 994.458 314.122C894.953 167.635 721.776 80.748 521.061 114.56L523.055 126.393C718.894 93.4026 887.518 178.046 984.531 320.865C1081.57 463.72 1107.07 665.031 1015.62 865.348L1026.53 870.332ZM521.061 114.56C489.203 119.926 449.781 131.768 412.474 149.631C375.222 167.468 339.613 191.53 315.859 221.59L325.274 229.03C347.47 200.942 381.303 177.861 417.657 160.454C453.956 143.074 492.305 131.573 523.055 126.393L521.061 114.56ZM899.085 890.626C868.168 981.873 815.595 1034.52 757.966 1066.1C700.118 1097.81 636.877 1108.47 584.371 1115.05L585.864 1126.96C638.608 1120.34 703.777 1109.49 763.734 1076.63C823.909 1043.65 878.536 988.666 910.45 894.477L899.085 890.626ZM464.37 1126.79C517.747 1112.89 551.484 1103.74 581.543 1085.93C611.697 1068.06 637.783 1041.72 676.77 994.324L667.503 986.7C628.638 1033.94 603.661 1058.88 575.426 1075.61C547.097 1092.39 515.121 1101.17 461.345 1115.18L464.37 1126.79ZM676.77 994.324C695.86 971.119 718.261 960.287 746.143 953.216C760.189 949.654 775.523 947.073 792.551 944.334C809.512 941.606 828.085 938.732 848.268 934.596L845.859 922.84C825.983 926.913 807.697 929.744 790.646 932.486C773.661 935.218 757.827 937.874 743.194 941.584C713.718 949.059 688.715 960.915 667.503 986.7L676.77 994.324ZM911.715 849.944C911.304 851.934 910.836 852.973 910.228 854.264C909.512 855.786 908.559 857.719 907.773 860.886L919.42 863.776C919.897 861.852 920.394 860.844 921.086 859.375C921.885 857.676 922.784 855.674 923.466 852.375L911.715 849.944ZM907.773 860.886C905.211 871.213 902.306 881.12 899.085 890.626L910.45 894.477C913.78 884.648 916.779 874.42 919.42 863.776L907.773 860.886ZM848.268 934.596C862.772 931.624 874.8 925.911 886.131 914.791C897.258 903.871 907.492 887.947 918.963 865.015L908.23 859.647C896.945 882.209 887.421 896.711 877.725 906.227C868.233 915.543 858.372 920.276 845.859 922.84L848.268 934.596ZM460.364 1126.45C557.018 1170.61 685.99 1178.25 799.641 1156.17C912.951 1134.16 1013.29 1082.1 1050.28 1004.59L1039.45 999.424C1004.99 1071.64 909.566 1122.59 797.353 1144.39C685.481 1166.12 559.174 1158.4 465.351 1115.53L460.364 1126.45ZM1050.28 1004.59C1077.66 947.235 1082.86 912.984 1085.43 884.003C1087.97 855.418 1087.94 833.328 1104.35 798.518L1093.5 793.4C1076.02 830.477 1075.98 854.785 1073.48 882.94C1071.01 910.698 1066.13 943.528 1039.45 999.424L1050.28 1004.59ZM1104.35 798.518C1140.22 722.452 1162.18 673.673 1169.84 621.811C1177.52 569.816 1170.78 515.205 1150.61 427.384L1138.92 430.07C1159.02 517.631 1165.31 570.4 1157.97 620.058C1150.62 669.848 1129.53 716.994 1093.5 793.4L1104.35 798.518ZM1150.61 427.384C1137.72 371.247 1117.8 337.819 1095.33 310.599C1084.21 297.128 1072.44 285.154 1060.93 272.956C1049.36 260.692 1037.89 248.049 1026.94 232.878L1017.21 239.905C1028.64 255.725 1040.53 268.825 1052.2 281.191C1063.93 293.623 1075.29 305.167 1086.08 318.238C1107.43 344.1 1126.47 375.85 1138.92 430.07L1150.61 427.384ZM1026.94 232.878C956.841 135.831 873.243 85.1504 751.046 75.1468L750.067 87.1068C868.561 96.8072 949.044 145.53 1017.21 239.905L1026.94 232.878ZM495.292 89.9593C426.399 108.825 359.413 155.776 315.564 221.997L325.57 228.622C367.824 164.81 432.388 119.626 498.461 101.533L495.292 89.9593ZM440.443 248.72C505.167 228.825 558.4 197.425 621.216 137.154L612.908 128.495C551.236 187.668 499.593 217.985 436.917 237.249L440.443 248.72ZM615.627 137.266C616.57 138.059 617.378 139.432 617.217 142.48C617.047 145.68 615.796 150.027 613.242 155.457C608.162 166.255 598.743 179.65 586.883 193.666C563.169 221.692 530.925 250.776 507.897 264.714L514.111 274.98C538.589 260.164 571.791 230.081 596.044 201.418C608.168 187.09 618.363 172.76 624.1 160.565C626.955 154.498 628.913 148.532 629.2 143.115C629.495 137.546 628.008 131.998 623.349 128.081L615.627 137.266ZM513.706 279.062C552.671 270.211 574.324 268.268 597.203 267.105C620.286 265.932 644.918 265.55 689.265 259.799L687.722 247.899C643.95 253.575 619.869 253.937 596.594 255.12C573.118 256.313 550.772 258.337 511.048 267.36L513.706 279.062ZM686.052 252.745C664.963 272.58 641.323 276.863 611.656 282.477C582.088 288.072 547.674 294.896 508.085 321.159L514.718 331.158C552.207 306.29 584.621 299.805 613.887 294.268C643.053 288.749 670.254 284.076 694.273 261.487L686.052 252.745ZM512.17 335.8C574.877 339.053 606.944 354.774 622.324 368.659C630.033 375.619 633.513 382.067 634.751 386.297C635.392 388.485 635.345 389.762 635.279 390.131C635.243 390.33 635.271 389.896 635.765 389.276C636.371 388.516 637.581 387.661 639.223 387.661L639.221 399.661C641.821 399.661 643.871 398.359 645.148 396.757C646.314 395.295 646.844 393.624 647.091 392.245C647.59 389.456 647.229 386.208 646.268 382.925C644.302 376.211 639.426 367.932 630.365 359.752C612.205 343.357 577.069 327.151 512.792 323.816L512.17 335.8ZM502.059 424.474C502.387 409.96 501.451 395.009 499.381 380.017L487.494 381.657C489.484 396.073 490.374 410.382 490.062 424.203L502.059 424.474ZM499.381 380.017C492.732 331.849 469.749 276.11 443.56 239.494L433.8 246.475C458.884 281.547 481.117 335.461 487.494 381.657L499.381 380.017ZM639.223 387.661C639.841 387.661 639.804 387.865 638.043 386.996C637.317 386.638 636.482 386.197 635.427 385.64C634.396 385.096 633.201 384.466 631.861 383.789C626.429 381.047 618.702 377.59 607.558 374.738C585.311 369.046 549.955 365.89 492.507 374.91L494.368 386.764C550.679 377.924 584.323 381.18 604.583 386.364C614.691 388.95 621.594 392.049 626.452 394.501C627.684 395.123 628.791 395.707 629.825 396.253C630.835 396.786 631.83 397.312 632.734 397.758C634.234 398.498 636.657 399.661 639.221 399.661L639.223 387.661ZM751.047 75.1468L748.809 74.9635L747.829 86.9235L750.067 87.1067L751.047 75.1468ZM748.809 74.9635C654.762 67.2621 595.855 62.4219 495.292 89.9593L498.461 101.533C596.891 74.5798 654.034 79.2427 747.829 86.9235L748.809 74.9635ZM751.046 75.1468C750.298 75.0855 749.552 75.0244 748.809 74.9635L747.829 86.9235C748.573 86.9844 749.319 87.0455 750.067 87.1068L751.046 75.1468ZM318.007 219.883C278.346 238.59 219.686 274.243 173.661 337.425L183.36 344.491C227.805 283.477 284.563 248.926 323.126 230.736L318.007 219.883ZM173.661 337.425C143.068 379.423 118.414 435.312 108.977 510.544L120.884 512.037C130.079 438.733 154.013 384.778 183.36 344.491L173.661 337.425ZM181.638 335.837C171.858 329.865 158.687 326.946 145.1 325.533C131.378 324.107 116.519 324.157 102.917 324.584C88.98 325.023 77.0538 325.818 67.7511 325.981C63.1645 326.061 59.7653 325.967 57.5585 325.661C56.4182 325.504 56.01 325.341 56.0225 325.347C56.0517 325.36 56.4035 325.518 56.8302 325.938C57.3028 326.402 57.845 327.174 58.0697 328.242L46.3268 330.713C47.0263 334.038 49.6255 335.62 51.0565 336.271C52.6052 336.975 54.3516 337.332 55.9145 337.548C59.114 337.991 63.3149 338.06 67.961 337.979C77.1239 337.819 90.1937 336.991 103.294 336.578C116.73 336.156 130.95 336.127 143.859 337.469C156.904 338.825 167.917 341.519 175.384 346.079L181.638 335.837ZM58.0697 328.242C58.287 329.275 58.1124 330.12 57.9393 330.614C57.8543 330.857 57.765 331.031 57.7065 331.133C57.6476 331.236 57.606 331.291 57.6012 331.298C57.5981 331.302 57.6797 331.197 57.9074 330.986C58.1285 330.782 58.4395 330.523 58.8591 330.21C60.6053 328.91 63.5058 327.227 67.5462 325.289C75.5496 321.448 87.1222 317.029 100.564 312.948C127.56 304.752 161.077 298.228 187.345 300.068L188.184 288.098C159.785 286.108 124.639 293.098 97.0785 301.466C83.2424 305.666 71.0634 310.291 62.3548 314.47C58.0392 316.541 54.3435 318.611 51.6926 320.585C50.3913 321.554 49.0667 322.7 48.059 324.021C47.1691 325.188 45.6757 327.618 46.3268 330.713L58.0697 328.242ZM193.506 285.982C172.62 266.549 146.313 237.12 125.398 211.756C114.952 199.089 105.924 187.523 99.6443 178.813C96.4924 174.442 94.1058 170.891 92.5864 168.326C91.8157 167.026 91.3605 166.133 91.1361 165.598C91.0213 165.324 91.036 165.305 91.0731 165.475C91.0759 165.488 91.3265 166.465 90.9232 167.776L79.4543 164.245C78.9406 165.914 79.2087 167.393 79.3515 168.045C79.5286 168.853 79.8058 169.609 80.0706 170.24C80.6056 171.516 81.3786 172.952 82.2626 174.443C84.0523 177.464 86.6807 181.352 89.9107 185.832C96.3947 194.824 105.598 206.607 116.139 219.39C137.198 244.929 163.888 274.816 185.332 294.767L193.506 285.982ZM90.9232 167.776C90.4434 169.334 89.2718 170.588 87.8004 171.186C86.6439 171.657 85.7244 171.554 85.5484 171.533C85.1878 171.491 85.3182 171.445 86.2734 171.87C87.9985 172.637 90.7119 174.148 94.5617 176.452C98.3482 178.717 102.958 181.581 108.414 184.946C113.847 188.298 120.066 192.115 126.985 196.235C154.654 212.708 193.608 234.065 239.284 250.358L243.316 239.056C198.68 223.133 160.481 202.211 133.124 185.924C126.286 181.853 120.131 178.075 114.714 174.733C109.318 171.404 104.601 168.475 100.723 166.154C96.9086 163.872 93.6208 162.004 91.1479 160.904C90.0041 160.396 88.4863 159.795 86.9459 159.615C86.1801 159.525 84.7877 159.457 83.2776 160.071C81.4527 160.814 80.0469 162.32 79.4543 164.245L90.9232 167.776ZM249.774 240.344C245.946 227.423 246.9 209.498 251.171 189.188C255.404 169.057 262.726 147.344 270.883 127.271C279.035 107.214 287.955 88.9587 295.299 75.773C298.98 69.164 302.208 63.9337 304.697 60.4192C305.957 58.6405 306.919 57.4568 307.571 56.7798C307.905 56.4326 308.016 56.3681 307.923 56.4322C307.869 56.4692 307.663 56.6074 307.321 56.7487C306.992 56.8844 306.339 57.1057 305.454 57.1055L305.456 45.1055C303.345 45.1052 301.779 46.0934 301.119 46.5478C300.287 47.1203 299.547 47.812 298.927 48.4561C297.67 49.7618 296.309 51.5009 294.905 53.4833C292.066 57.4906 288.603 63.1344 284.816 69.9337C277.223 83.5646 268.094 102.263 259.766 122.753C251.445 143.229 243.856 165.658 239.427 186.719C235.036 207.602 233.578 227.921 238.268 243.752L249.774 240.344ZM305.454 57.1055C304.11 57.1054 302.69 56.6184 301.568 55.5757C300.584 54.6611 300.194 53.6586 300.041 53.1601C299.767 52.265 299.857 51.6486 299.841 51.8752C299.825 52.1213 299.712 52.8482 299.37 54.3265C298.706 57.1957 297.574 61.2821 296.138 66.8441C293.328 77.7344 289.659 93.1657 287.641 110.911C283.619 146.262 286.043 191.749 315.881 229.057L325.253 221.562C298.32 187.888 295.695 146.273 299.564 112.268C301.49 95.3351 305.001 80.5246 307.758 69.8426C309.106 64.6184 310.354 60.0861 311.061 57.0329C311.404 55.55 311.725 53.99 311.814 52.6893C311.851 52.1425 311.911 50.9377 311.516 49.6477C311.303 48.9517 310.829 47.8 309.738 46.7856C308.508 45.6431 306.957 45.1058 305.456 45.1055L305.454 57.1055ZM584.371 1115.05C583.438 1115.17 582.074 1115.36 580.967 1115.79C580.665 1115.91 579.964 1116.2 579.238 1116.78C578.606 1117.29 576.822 1118.95 576.94 1121.8C577.054 1124.52 578.831 1126.01 579.373 1126.42C580.057 1126.94 580.706 1127.2 580.994 1127.31C582.039 1127.72 583.262 1127.88 583.889 1127.96C584.744 1128.07 585.745 1128.16 586.784 1128.24C590.889 1128.55 596.698 1128.72 599.449 1128.65L599.175 1116.66C596.89 1116.71 591.48 1116.56 587.686 1116.28C586.751 1116.21 585.985 1116.13 585.429 1116.06C584.644 1115.96 584.812 1115.92 585.306 1116.11C585.457 1116.17 585.999 1116.38 586.611 1116.85C587.081 1117.2 588.819 1118.64 588.93 1121.3C589.046 1124.09 587.296 1125.7 586.736 1126.15C586.083 1126.67 585.492 1126.9 585.342 1126.96C584.841 1127.16 584.737 1127.1 585.864 1126.96L584.371 1115.05ZM599.411 1128.65C694.515 1127.1 773.292 1109.12 842.395 1068.07C911.466 1027.03 970.348 963.242 1026.21 870.947L1015.94 864.733C960.732 955.954 903.117 1018.03 836.266 1057.75C769.447 1097.45 692.878 1115.12 599.214 1116.65L599.411 1128.65ZM404.823 575.434C404.823 569.131 400.212 561.263 390.515 559.877L388.816 571.756C390.515 571.999 391.449 572.71 391.991 573.378C392.62 574.152 392.823 574.995 392.823 575.433L404.823 575.434ZM537.107 657.478C537.419 657.875 537.88 658.707 537.877 659.862C537.874 660.94 537.466 661.624 537.347 661.802L527.384 655.113C526.625 656.244 525.882 657.85 525.877 659.832C525.872 661.891 526.664 663.61 527.671 664.891L537.107 657.478ZM537.609 661.374C537.38 661.786 537.154 662.071 537.052 662.193C536.934 662.337 536.838 662.437 536.791 662.484C536.701 662.575 536.658 662.608 536.706 662.568C536.796 662.491 536.99 662.336 537.313 662.094C537.945 661.623 538.813 661.013 539.761 660.366C541.664 659.067 543.63 657.795 544.133 657.484L537.825 647.275C537.117 647.713 534.991 649.093 532.998 650.453C531.998 651.135 530.967 651.857 530.132 652.48C529.722 652.786 529.291 653.12 528.913 653.443C528.727 653.602 528.489 653.813 528.249 654.056C528.104 654.203 527.565 654.744 527.122 655.541L537.609 661.374ZM527.122 655.541C525.568 658.335 525.616 661.55 527.24 664.265L537.537 658.104C537.755 658.467 537.978 659.042 537.988 659.765C537.998 660.487 537.791 661.046 537.609 661.374L527.122 655.541ZM601.378 469.374C621.391 545.774 604.849 588.246 583.586 613.119C572.795 625.741 560.494 634.184 550.189 640.285C544.855 643.442 540.579 645.684 536.617 647.956C534.757 649.023 532.996 650.085 531.523 651.133C530.147 652.112 528.518 653.424 527.384 655.113L537.347 661.802C537.236 661.968 537.404 661.676 538.481 660.91C539.461 660.212 540.807 659.387 542.588 658.366C545.908 656.461 551.049 653.721 556.302 650.611C567.168 644.178 580.713 634.946 592.707 620.916C617.011 592.486 633.789 545.746 612.987 466.334L601.378 469.374ZM527.671 664.891C529.376 667.061 532.032 668.406 534.331 669.365L538.948 658.289C538.036 657.908 537.459 657.606 537.119 657.394C536.75 657.165 536.862 657.166 537.107 657.478L527.671 664.891ZM187.345 300.068C191.237 300.341 194.138 297.921 195.341 295.238C196.552 292.538 196.424 288.697 193.506 285.982L185.332 294.767C183.853 293.392 183.878 291.473 184.392 290.327C184.899 289.197 186.253 287.962 188.184 288.098L187.345 300.068ZM508.085 321.159C504.791 323.343 503.993 327.12 504.876 330.067C505.747 332.97 508.387 335.604 512.17 335.8L512.792 323.816C514.659 323.913 515.961 325.253 516.371 326.621C516.794 328.032 516.414 330.034 514.718 331.158L508.085 321.159ZM689.265 259.799C687.498 260.028 685.928 259.033 685.22 257.667C684.476 256.231 684.581 254.129 686.052 252.745L694.273 261.487C697.122 258.808 697.329 254.951 695.874 252.145C694.456 249.408 691.363 247.426 687.722 247.899L689.265 259.799ZM507.897 264.714C504.679 266.662 502.882 270.626 504.455 274.478C506.022 278.311 510.055 279.892 513.706 279.062L511.048 267.36C512.312 267.073 514.611 267.606 515.564 269.939C516.524 272.289 515.234 274.3 514.111 274.98L507.897 264.714ZM239.284 250.358C245.848 252.7 251.555 246.358 249.774 240.344L238.268 243.752C237.814 242.221 238.375 240.784 239.238 239.935C240.12 239.066 241.68 238.472 243.316 239.056L239.284 250.358ZM621.216 137.154C619.988 138.332 617.601 138.926 615.627 137.266L623.349 128.081C619.973 125.243 615.457 126.05 612.908 128.495L621.216 137.154Z" fill="#9F0086"/>
<path fill-rule="evenodd" clip-rule="evenodd" d="M917.427 635.002C918.532 635.002 919.428 634.107 919.428 633.002L919.455 426.835C919.455 425.73 918.56 424.835 917.455 424.835L753.162 424.813C752.624 424.813 752.108 425.03 751.732 425.414L731.254 446.342L896.346 446.364C897.451 446.364 898.346 447.259 898.346 448.364L898.321 635L917.427 635.002Z" fill="#1F1300"/>
<path d="M898.346 448.364C898.346 447.259 897.451 446.364 896.346 446.364L731.254 446.342C707.542 468.243 698.293 508.476 694.44 530.432C694.271 531.395 694.858 532.337 695.78 532.663C789.643 565.908 807.557 625.974 810.087 636.924C810.316 637.912 811.209 638.63 812.223 638.588L898.321 635L898.346 448.364Z" fill="#F5F5F5"/>
<path d="M836.089 635.918L835.284 629.972L835.284 629.972L836.089 635.918ZM695.328 875.483C697.406 878.064 701.184 878.472 703.765 876.394C706.346 874.315 706.754 870.538 704.675 867.957L695.328 875.483ZM924.735 641.723C927.935 642.585 931.227 640.69 932.089 637.49C932.951 634.29 931.056 630.998 927.856 630.136L924.735 641.723ZM835.284 629.972C780.92 637.324 742.956 654.151 717.179 676.218C691.35 698.33 678.17 725.355 672.813 752.296C667.474 779.145 669.902 805.872 675.154 827.734C680.364 849.422 688.533 867.042 695.328 875.483L704.675 867.957C699.432 861.444 691.819 845.733 686.822 824.931C681.866 804.302 679.662 779.378 684.582 754.636C689.484 729.986 701.453 705.478 724.983 685.334C748.564 665.146 784.166 648.994 836.893 641.863L835.284 629.972ZM836.893 641.863C866.507 637.858 888.653 637.875 903.297 638.866C910.62 639.361 916.071 640.1 919.644 640.702C921.431 641.004 922.749 641.271 923.598 641.457C924.022 641.55 924.329 641.623 924.519 641.669C924.613 641.692 924.679 641.709 924.715 641.718C924.733 641.722 924.744 641.725 924.747 641.726C924.749 641.727 924.748 641.727 924.746 641.726C924.746 641.726 924.744 641.725 924.742 641.725C924.741 641.725 924.739 641.724 924.739 641.724C924.737 641.723 924.735 641.723 926.296 635.929C927.856 630.136 927.854 630.135 927.852 630.135C927.851 630.134 927.848 630.134 927.846 630.133C927.843 630.132 927.838 630.131 927.834 630.13C927.824 630.127 927.813 630.124 927.8 630.121C927.774 630.114 927.74 630.105 927.7 630.095C927.618 630.074 927.506 630.046 927.365 630.011C927.084 629.943 926.684 629.848 926.165 629.735C925.129 629.508 923.62 629.204 921.64 628.87C917.679 628.202 911.832 627.415 904.107 626.893C888.653 625.848 865.696 625.859 835.284 629.972L836.893 641.863Z" fill="#9F0086"/>
<path d="M532.389 660.269C531.694 659.384 531.726 658.495 532.366 657.542C532.377 657.522 532.392 657.5 532.412 657.475C533.593 655.784 536.668 653.889 540.979 651.464C539.799 652.193 533.148 656.539 532.412 657.475C532.396 657.497 532.381 657.519 532.366 657.542C531.845 658.478 531.873 659.407 532.389 660.269Z" fill="#D7B4D0"/>
<path d="M536.64 662.911L538.949 657.373L538.949 657.373L536.64 662.911ZM694.178 520.066L688.365 518.579L688.365 518.579L694.178 520.066ZM696.204 513.656L701.809 515.796L701.935 515.467L702.021 515.125L696.204 513.656ZM773.316 426.682C776.623 426.467 779.129 423.612 778.914 420.305C778.698 416.998 775.843 414.492 772.537 414.707L773.316 426.682ZM544.561 656.278C547.219 654.3 547.771 650.541 545.793 647.882C543.815 645.224 540.057 644.672 537.398 646.65L544.561 656.278ZM612.987 465.418C612.147 462.212 608.868 460.294 605.663 461.134C602.457 461.974 600.539 465.253 601.379 468.459L612.987 465.418ZM534.332 668.449C538.382 670.137 543.536 670.694 549.082 670.484C554.734 670.269 561.257 669.239 568.325 667.368C582.467 663.626 599.161 656.426 616.002 645.106C649.751 622.42 684.248 583.079 699.99 521.554L688.365 518.579C673.412 577.02 640.816 613.968 609.308 635.147C593.521 645.758 578.045 652.384 565.256 655.768C558.858 657.46 553.224 658.318 548.627 658.492C543.925 658.671 540.736 658.118 538.949 657.373L534.332 668.449ZM699.99 521.554C700.513 519.51 701.123 517.594 701.809 515.796L690.599 511.516C689.743 513.757 688.997 516.11 688.365 518.579L699.99 521.554ZM702.021 515.125C708.246 490.479 716.656 468.796 728.318 453.052C739.849 437.484 754.384 427.914 773.316 426.682L772.537 414.707C749.341 416.217 731.82 428.164 718.675 445.91C705.66 463.48 696.772 486.906 690.387 512.187L702.021 515.125ZM537.107 656.562C537.419 656.959 537.88 657.791 537.877 658.946C537.874 660.024 537.467 660.709 537.348 660.886L527.385 654.197C526.626 655.328 525.882 656.934 525.877 658.916C525.872 660.975 526.664 662.694 527.671 663.975L537.107 656.562ZM537.61 660.458C537.417 660.805 537.23 661.054 537.127 661.185L527.696 653.765C527.554 653.945 527.337 654.239 527.123 654.625L537.61 660.458ZM537.127 661.185C536.773 661.636 536.488 661.831 536.759 661.608C536.897 661.494 537.128 661.315 537.459 661.07C538.115 660.586 538.98 659.982 539.905 659.352C541.766 658.086 543.645 656.87 544.133 656.568L537.826 646.36C537.134 646.787 535.097 648.109 533.153 649.432C532.176 650.097 531.167 650.8 530.331 651.416C529.917 651.722 529.498 652.042 529.127 652.347C528.888 652.544 528.235 653.08 527.697 653.765L537.127 661.185ZM544.561 656.278C544.359 656.428 544.184 656.538 544.063 656.611C544.033 656.629 544.006 656.644 543.983 656.658C543.96 656.671 543.94 656.682 543.925 656.691C543.909 656.7 543.897 656.707 543.889 656.711C543.885 656.713 543.882 656.715 543.88 656.716C543.878 656.717 543.877 656.718 543.877 656.718C543.877 656.718 543.877 656.718 543.877 656.718C543.877 656.718 543.877 656.718 543.877 656.718C543.877 656.718 543.877 656.718 543.877 656.718C543.877 656.718 543.878 656.717 543.878 656.717C543.878 656.717 543.879 656.717 543.88 656.716C543.882 656.715 543.885 656.713 543.889 656.711C543.897 656.707 543.909 656.7 543.925 656.691C543.94 656.682 543.96 656.671 543.983 656.658C544.006 656.644 544.033 656.629 544.063 656.611C544.184 656.538 544.359 656.428 544.561 656.278L537.398 646.65C537.599 646.5 537.775 646.389 537.895 646.317C537.925 646.299 537.952 646.283 537.975 646.27C537.999 646.257 538.018 646.245 538.034 646.237C538.049 646.228 538.062 646.221 538.07 646.217C538.074 646.215 538.077 646.213 538.079 646.212C538.08 646.211 538.082 646.21 538.082 646.21C538.082 646.21 538.082 646.21 538.082 646.21C538.082 646.21 538.082 646.21 538.082 646.21C538.081 646.21 538.081 646.21 538.081 646.21C538.081 646.21 538.081 646.21 538.081 646.21C538.08 646.211 538.08 646.211 538.079 646.212C538.077 646.213 538.073 646.215 538.07 646.217C538.062 646.221 538.049 646.228 538.034 646.237C538.018 646.245 537.998 646.257 537.975 646.27C537.952 646.283 537.925 646.299 537.895 646.317C537.775 646.389 537.599 646.5 537.398 646.65L544.561 656.278ZM527.123 654.625C525.568 657.419 525.616 660.635 527.24 663.349L537.538 657.188C537.755 657.551 537.978 658.126 537.988 658.849C537.998 659.572 537.792 660.131 537.61 660.458L527.123 654.625ZM601.379 468.459C618.609 534.236 608.709 574.789 592.229 600.557C575.576 626.597 551.647 638.581 538.038 646.234L543.92 656.694C557.095 649.284 583.814 635.988 602.339 607.022C621.038 577.784 630.848 533.605 612.987 465.418L601.379 468.459ZM538.038 646.234C535.87 647.453 533.832 648.639 532.151 649.781C530.591 650.841 528.747 652.244 527.493 654.039L537.33 660.911C537.258 661.015 537.542 660.625 538.893 659.708C540.122 658.873 541.777 657.899 543.92 656.694L538.038 646.234ZM527.493 654.039C527.457 654.091 527.421 654.143 527.385 654.197L537.348 660.886C537.341 660.895 537.336 660.904 537.331 660.911L527.493 654.039ZM527.671 663.975C529.376 666.146 532.032 667.491 534.332 668.449L538.949 657.373C538.036 656.993 537.459 656.69 537.119 656.479C536.751 656.249 536.862 656.25 537.107 656.562L527.671 663.975Z" fill="#9F0086"/>
<path d="M690.906 843.787C700.061 870.804 719.75 877.675 710.132 892.785C705.586 899.925 694.477 912.344 685.632 924.157C683.792 927.48 681.445 930.953 678.531 934.45C674.867 941.776 669.371 948.644 667.082 946.812C664.792 944.98 668.456 942.233 678.531 934.45C680.536 931.178 682.982 927.695 685.632 924.157C695.354 906.593 690.91 893.23 681.282 902.855C679.948 904.189 678.589 905.399 677.202 906.502C676.484 907.14 675.621 907.777 674.627 908.412C664.731 915.241 653.457 917.449 640.069 921.166C629.536 931.696 627.635 929.864 624.957 923.911C622.28 917.958 631.826 925.286 640.069 921.166C654.395 917.188 667.685 912.848 674.627 908.412C675.496 907.812 676.354 907.177 677.202 906.502C680.287 903.761 680.685 900.998 677.162 898.275C667.089 890.49 648.774 885.354 634.121 885.906C617.178 890.483 611.16 894.146 613.515 888.651C615.87 883.156 618.552 885.904 634.121 885.906C678.995 884.08 684.948 885.913 688.614 863.476L690.906 843.787Z" fill="#9F0086"/>
<path d="M634.121 885.906C678.995 884.08 684.948 885.913 688.614 863.476L690.906 843.787C700.061 870.804 719.75 877.675 710.132 892.785C704.225 902.064 687.233 920.256 678.531 934.45M634.121 885.906C648.774 885.354 667.089 890.49 677.162 898.275C687.235 906.061 665.254 914.173 640.069 921.166M634.121 885.906C617.178 890.483 611.16 894.146 613.515 888.651C615.87 883.156 618.552 885.904 634.121 885.906ZM640.069 921.166C656.554 916.589 669.833 914.301 681.282 902.855C692.732 891.409 696.85 912.473 678.531 934.45M640.069 921.166C629.536 931.696 627.635 929.864 624.957 923.911C622.28 917.958 631.826 925.286 640.069 921.166ZM678.531 934.45C668.456 942.233 664.792 944.98 667.082 946.812C669.371 948.644 674.867 941.776 678.531 934.45Z" stroke="#9F0086" stroke-width="12" stroke-linecap="round"/>
<path d="M536.008 666.219C533.432 664.93 529.598 662.105 530.972 657.976C532.347 653.847 537.305 652.772 538.516 652.024C506.247 648.357 489.761 662.655 462.746 646.977C476.94 656.137 489.303 662.55 489.303 663.465C489.302 664.381 473.733 669.416 458.163 682.693C468.237 676.176 480.601 676.286 494.796 676.287C508.991 676.289 503.037 685.904 487.466 703.761C492.528 700.098 502.112 679.036 513.111 679.037C527.306 679.039 538.511 689.114 564.399 662.109C547.914 667.136 538.298 667.364 536.008 666.219Z" fill="#9F0086"/>
<path d="M564.399 662.109L568.73 666.262L584.64 649.664L562.649 656.37L564.399 662.109ZM538.516 652.024L541.67 657.129L556.413 648.02L539.194 646.063L538.516 652.024ZM536.008 666.219L538.692 660.853L536.008 666.219ZM513.111 685.037C516.081 685.038 518.839 685.557 522.574 686.123C526.135 686.662 530.311 687.182 535.024 686.665C544.76 685.598 555.251 680.323 568.73 666.262L560.068 657.957C547.659 670.901 539.605 674.091 533.717 674.737C530.618 675.076 527.714 674.765 524.372 674.258C521.205 673.779 517.239 673.038 513.112 673.037L513.111 685.037ZM538.692 660.853C538.288 660.65 537.86 660.4 537.476 660.12C537.084 659.834 536.831 659.585 536.691 659.411C536.556 659.242 536.61 659.249 536.654 659.433C536.676 659.528 536.687 659.634 536.682 659.736C536.678 659.838 536.66 659.887 536.665 659.871L525.279 656.081C523.794 660.544 525.286 664.368 527.327 666.915C529.202 669.254 531.664 670.755 533.324 671.585L538.692 660.853ZM536.665 659.871C536.68 659.828 536.79 659.5 537.745 658.963C538.199 658.708 538.701 658.486 539.305 658.237C539.551 658.136 539.961 657.971 540.267 657.839C540.545 657.72 541.11 657.474 541.67 657.129L535.363 646.92C535.606 646.77 535.789 646.707 534.735 647.141C534.026 647.433 532.976 647.878 531.866 648.502C529.695 649.722 526.64 651.995 525.279 656.081L536.665 659.871ZM539.194 646.063C522.214 644.133 508.914 646.946 498.062 648.035C487.27 649.117 477.798 648.776 465.758 641.788L459.735 652.167C474.709 660.857 486.987 661.206 499.259 659.975C511.471 658.75 522.55 656.248 537.839 657.986L539.194 646.063ZM459.493 652.019C466.709 656.675 473.45 660.628 478.304 663.484C480.768 664.934 482.661 666.052 483.943 666.862C484.601 667.279 484.949 667.521 485.089 667.628C485.178 667.697 485.027 667.592 484.799 667.35C484.687 667.232 484.414 666.933 484.137 666.475C483.913 666.107 483.302 665.022 483.303 663.465L495.303 663.466C495.303 661.852 494.668 660.699 494.397 660.252C494.071 659.716 493.727 659.327 493.522 659.11C493.105 658.669 492.675 658.323 492.398 658.111C491.806 657.657 491.078 657.176 490.356 656.72C488.876 655.784 486.791 654.555 484.39 653.142C479.515 650.273 472.978 646.439 466 641.936L459.493 652.019ZM483.303 663.465C483.303 661.441 484.313 660.134 484.603 659.776C484.992 659.299 485.356 659.015 485.471 658.926C485.723 658.734 485.869 658.666 485.708 658.755C485.439 658.903 484.94 659.148 484.054 659.569C482.389 660.359 479.843 661.542 476.806 663.119C470.717 666.282 462.511 671.1 454.269 678.128L462.056 687.259C469.384 681.009 476.748 676.672 482.337 673.768C485.139 672.313 487.458 671.236 489.199 670.409C490.016 670.022 490.854 669.62 491.498 669.265C491.793 669.103 492.289 668.82 492.776 668.447C493.009 668.268 493.463 667.901 493.911 667.351C494.262 666.919 495.302 665.547 495.303 663.466L483.303 663.465ZM461.421 687.731C469.715 682.367 480.077 682.286 494.795 682.287L494.796 670.287C481.125 670.286 466.76 669.986 454.904 677.655L461.421 687.731ZM494.795 682.287C498.172 682.288 498.249 682.968 497.611 682.337C496.29 681.032 497.197 679.763 496.644 681.306C496.124 682.759 494.805 685.054 492.354 688.365C489.972 691.583 486.805 695.389 482.943 699.817L491.988 707.704C495.912 703.204 499.328 699.112 501.999 695.505C504.599 691.992 506.802 688.534 507.942 685.352C509.05 682.258 509.757 677.469 506.046 673.802C503.019 670.81 498.517 670.288 494.796 670.287L494.795 682.287ZM490.983 708.622C492.242 707.711 493.332 706.51 494.189 705.476C495.097 704.38 496.03 703.117 496.94 701.845C498.846 699.182 500.697 696.44 502.817 693.684C504.918 690.954 506.964 688.647 508.937 687.059C510.95 685.439 512.303 685.037 513.111 685.037L513.112 673.037C508.42 673.037 504.45 675.267 501.414 677.71C498.338 680.186 495.61 683.373 493.307 686.366C491.023 689.334 488.841 692.543 487.183 694.86C486.311 696.077 485.578 697.06 484.951 697.818C484.641 698.191 484.392 698.467 484.197 698.664C483.994 698.87 483.914 698.924 483.948 698.9L490.983 708.622ZM562.649 656.37C554.674 658.802 548.512 660.025 544.2 660.517C542.036 660.764 540.427 660.817 539.339 660.772C538.013 660.717 538.065 660.539 538.692 660.853L533.324 671.585C535.096 672.471 537.209 672.694 538.844 672.762C540.719 672.839 542.973 672.735 545.56 672.44C550.75 671.848 557.639 670.444 566.149 667.849L562.649 656.37ZM481.523 709.511C480.597 708.412 479.795 707.492 479.325 706.943C478.679 706.186 478.739 706.205 478.898 706.479C478.935 706.543 479.591 707.593 479.581 709.172C479.575 710.115 479.331 711.178 478.713 712.175C478.121 713.13 477.376 713.717 476.819 714.055C476.284 714.379 475.822 714.536 475.584 714.607C475.332 714.682 475.146 714.715 475.083 714.726C474.983 714.742 474.968 714.739 475.227 714.716C476.197 714.632 478.372 714.497 481.187 713.646C483.999 712.795 487.296 711.289 490.983 708.622L483.948 698.9C478.876 702.57 475.652 702.634 474.185 702.761C473.953 702.782 473.524 702.819 473.091 702.892C472.794 702.942 471.711 703.119 470.599 703.793C469.958 704.181 469.149 704.828 468.514 705.853C467.853 706.919 467.587 708.062 467.581 709.096C467.57 710.858 468.309 712.14 468.519 712.501C469.022 713.369 469.779 714.243 470.201 714.737C470.799 715.437 471.436 716.163 472.343 717.239L481.523 709.511ZM482.1 701.076C480.612 704.049 479.66 706.817 478.967 708.995C478.577 710.221 478.381 710.893 478.103 711.75C477.849 712.532 477.702 712.896 477.628 713.05C477.502 713.308 477.782 712.562 478.76 711.898C479.334 711.508 480.071 711.199 480.919 711.104C481.74 711.012 482.406 711.149 482.833 711.29C483.542 711.525 483.733 711.819 483.291 711.42C482.927 711.093 482.358 710.503 481.523 709.511L472.343 717.239C473.339 718.422 474.312 719.484 475.265 720.342C476.139 721.128 477.423 722.14 479.061 722.682C481.064 723.345 483.432 723.231 485.502 721.825C487.151 720.705 488.003 719.152 488.416 718.305C489.208 716.679 489.893 714.235 490.403 712.632C491.021 710.687 491.753 708.601 492.831 706.445L482.1 701.076ZM441.899 695.391C442.874 696.074 444.876 697.503 447.334 697.743C450.631 698.064 452.855 696.264 453.915 695.285C454.806 694.463 456.116 692.98 457.077 691.968C458.26 690.722 459.831 689.156 462.056 687.259L454.269 678.128C451.662 680.351 449.786 682.219 448.375 683.705C447.69 684.426 447.093 685.081 446.662 685.548C446.184 686.064 445.935 686.32 445.773 686.47C445.408 686.807 446.525 685.607 448.498 685.8C449.209 685.869 449.614 686.096 449.559 686.067C449.504 686.039 449.288 685.916 448.782 685.561L441.899 695.391ZM444.401 636.723C444.183 636.986 442.727 638.583 441.777 639.959C441.254 640.715 440.602 641.777 440.164 643.033C439.734 644.268 439.315 646.263 440.072 648.467C440.887 650.838 442.659 652.309 444.386 653.118C445.993 653.87 447.771 654.169 449.454 654.279C452.838 654.501 457.519 654.047 463.838 652.877L461.655 641.078C455.61 642.196 452.106 642.427 450.238 642.305C449.295 642.243 449.182 642.113 449.474 642.25C449.886 642.443 450.921 643.113 451.421 644.568C451.864 645.856 451.552 646.821 451.496 646.982C451.432 647.165 451.421 647.111 451.649 646.78C452.202 645.981 452.692 645.518 453.619 644.407L444.401 636.723ZM467.976 644.037C465.795 640.157 463.74 637.226 461.699 635.175C459.691 633.157 457.125 631.425 453.971 631.255C450.688 631.077 448.317 632.664 446.962 633.876C445.776 634.938 444.636 636.441 444.401 636.723L453.619 644.407C454.529 643.315 454.649 643.101 454.965 642.818C455.113 642.685 454.487 643.3 453.322 643.237C452.286 643.181 452.21 642.652 453.192 643.639C454.142 644.593 455.578 646.471 457.516 649.918L467.976 644.037ZM448.782 685.561C448.46 685.336 449.052 685.649 449.552 686.604C449.851 687.174 450.14 688.02 450.115 689.064C450.09 690.122 449.751 691 449.363 691.632C448.713 692.687 447.937 693.041 448.137 692.93C448.202 692.893 448.458 692.767 449.049 692.546C450.966 691.827 456.394 690.285 460.845 688.06L455.48 677.326C451.688 679.222 448.416 679.968 444.837 681.309C444.055 681.603 443.138 681.977 442.287 682.452C441.571 682.852 440.136 683.728 439.143 685.342C438.583 686.252 438.151 687.419 438.119 688.777C438.086 690.121 438.454 691.279 438.925 692.177C439.769 693.786 441.075 694.814 441.899 695.391L448.782 685.561Z" fill="#9F0086"/>
<path d="M354.672 541.302C352.894 559.071 338.598 571.321 323.644 569.825C308.69 568.329 297.104 553.489 298.882 535.72C300.66 517.952 314.956 505.702 329.91 507.198C344.864 508.694 356.449 523.533 354.672 541.302Z" fill="#E1D7E3" stroke="#9F0086" stroke-width="10"/>
<path d="M346.167 549.936C342.788 564.313 331.483 571.805 322.562 569.709C313.641 567.613 306.855 555.869 310.234 541.492C313.612 527.115 324.917 519.622 333.838 521.719C342.76 523.815 349.545 535.558 346.167 549.936Z" fill="#9F0086" stroke="#9F0086" stroke-width="10"/>
</svg>
